<svg width="252" height="82" viewBox="0 0 252 82" fill="none" xmlns="http://www.w3.org/2000/svg">
<path d="M67.5783 81.6141H60V53.3859H68.3136C70.9811 53.3859 73.2621 53.9465 75.1567 55.0675C77.0607 56.1793 78.517 57.7782 79.5255 59.8641C80.5435 61.9499 81.0478 64.4585 81.0384 67.3897C81.029 70.3945 80.4917 72.9582 79.4266 75.0808C78.3709 77.1942 76.8392 78.8115 74.8315 79.9325C72.8332 81.0535 70.4155 81.6141 67.5783 81.6141ZM60.9049 80.7319H67.5783C70.2553 80.7319 72.5316 80.2036 74.4073 79.1469C76.2831 78.081 77.7064 76.551 78.6772 74.557C79.6575 72.5631 80.1429 70.174 80.1335 67.3897C80.1241 64.6423 79.6528 62.2899 78.7196 60.3327C77.7959 58.3755 76.4574 56.8777 74.7042 55.8394C72.951 54.7918 70.8208 54.2681 68.3136 54.2681H60.9049V80.7319Z" fill="white"/>
<path d="M88.4612 81.6141V53.3859H103.901V54.2681H89.3661V67.0589H103.052V67.9411H89.3661V80.7319H104.297V81.6141H88.4612Z" fill="white"/>
<path d="M109.62 54.2681V53.3859H129.188V54.2681H119.856V81.6141H118.951V54.2681H109.62Z" fill="white"/>
<path d="M130.485 81.6141H129.524L139.873 53.3859H141.117L151.467 81.6141H150.505L140.552 54.4886H140.439L130.485 81.6141ZM133.765 71.1939H147.225V72.076H133.765V71.1939Z" fill="white"/>
<path d="M158.186 53.3859V81.6141H157.281V53.3859H158.186Z" fill="white"/>
<path d="M167.235 81.6141V53.3859H168.14V80.7319H182.618V81.6141H167.235Z" fill="white"/>
<path d="M190.536 53.3859V81.6141H189.631V53.3859H190.536Z" fill="white"/>
<path d="M221.301 53.3859V81.6141H220.396L200.602 55.0399H200.489V81.6141H199.584V53.3859H200.489L220.283 79.9601H220.396V53.3859H221.301Z" fill="white"/>
<path d="M250.869 62.2072C250.699 61.2424 250.35 60.273 249.823 59.299C249.304 58.3157 248.611 57.4152 247.744 56.5974C246.887 55.7796 245.869 55.1226 244.69 54.6264C243.512 54.1302 242.178 53.8821 240.689 53.8821C238.474 53.8821 236.532 54.4518 234.864 55.5913C233.205 56.7215 231.914 58.3112 230.99 60.3603C230.066 62.4002 229.604 64.7801 229.604 67.5C229.604 70.1831 230.061 72.5493 230.976 74.5984C231.89 76.6475 233.186 78.2464 234.864 79.395C236.542 80.5436 238.521 81.1179 240.802 81.1179C242.819 81.1179 244.61 80.6538 246.175 79.7258C247.74 78.7885 248.96 77.4469 249.837 75.701C250.713 73.946 251.133 71.8371 251.095 69.3745L251.491 69.7053H241.085V68.8232H252V69.7053C252 72.2782 251.519 74.4835 250.558 76.3213C249.596 78.1499 248.272 79.5558 246.585 80.539C244.898 81.513 242.97 82 240.802 82C238.351 82 236.217 81.3935 234.397 80.1806C232.588 78.9585 231.183 77.2586 230.184 75.0808C229.194 72.903 228.699 70.3761 228.699 67.5C228.699 65.3314 228.982 63.3604 229.548 61.587C230.123 59.8043 230.938 58.2744 231.994 56.9971C233.059 55.7107 234.327 54.7229 235.797 54.0337C237.267 53.3446 238.898 53 240.689 53C242.386 53 243.884 53.2849 245.185 53.8546C246.486 54.4243 247.593 55.1732 248.508 56.1012C249.431 57.0201 250.162 58.0171 250.699 59.0922C251.246 60.1581 251.604 61.1965 251.774 62.2072H250.869Z" fill="white"/>
<path d="M0 0H1.92079L13.0642 26.4512H13.2619L24.4054 0H26.3262V29H24.6313V4.20557H24.4619L13.9964 29H12.3298L1.8643 4.20557H1.69482V29H0V0Z" fill="white"/>
<path d="M33.568 29H31.7037L42.1409 0H44.1747L54.6119 29H52.7476L43.2284 2.27979H43.0872L33.568 29ZM36.2091 18.0825H50.1066V19.7251H36.2091V18.0825Z" fill="white"/>
<path d="M68.0292 29H60.0071V0H68.6507C71.3624 0 73.6833 0.575846 75.6136 1.72754C77.5438 2.87923 79.022 4.53125 80.0483 6.68359C81.084 8.8265 81.5972 11.3989 81.5878 14.4009C81.5784 17.4689 81.0417 20.0933 79.9777 22.2739C78.9137 24.4451 77.3743 26.1113 75.3593 27.2725C73.3444 28.4242 70.901 29 68.0292 29ZM61.7725 27.3574H67.9586C70.5385 27.3574 72.7135 26.8429 74.4837 25.814C76.2538 24.7756 77.5908 23.2887 78.4947 21.3535C79.4081 19.4183 79.86 17.1007 79.8506 14.4009C79.8506 11.7388 79.4128 9.45898 78.5371 7.56152C77.6615 5.65462 76.3856 4.19141 74.7097 3.17187C73.0431 2.15234 70.9999 1.64258 68.5801 1.64258H61.7725V27.3574Z" fill="white"/>
<path d="M88.4765 29V0H104.577V1.64258H90.2419V13.6646H103.716V15.3071H90.2419V27.3574H104.916V29H88.4765Z" fill="white"/>
<path d="M134 0V29H132.277L113.832 3.21436H113.662V29H111.897V0H113.634L132.079 25.814H132.249V0H134Z" fill="white"/>
<path d="M36 41H216" stroke="white"/>
</svg>
