<svg width="180" height="180" viewBox="0 0 180 180" fill="none" xmlns="http://www.w3.org/2000/svg">
<rect width="180" height="180" fill="black"/>
<path d="M56.8118 112.665H52.5715V96.8707H57.2232C58.7157 96.8707 59.992 97.1843 61.0521 97.8115C62.1174 98.4336 62.9322 99.3282 63.4965 100.495C64.0661 101.662 64.3483 103.066 64.343 104.706C64.3377 106.387 64.0371 107.822 63.4412 109.009C62.8505 110.192 61.9935 111.097 60.8701 111.724C59.752 112.351 58.3993 112.665 56.8118 112.665ZM53.0778 112.171H56.8118C58.3096 112.171 59.5833 111.876 60.6328 111.285C61.6823 110.688 62.4787 109.832 63.0219 108.716C63.5704 107.601 63.842 106.264 63.8367 104.706C63.8314 103.169 63.5677 101.853 63.0456 100.758C62.5288 99.6624 61.7799 98.8244 60.7989 98.2434C59.818 97.6573 58.626 97.3642 57.2232 97.3642H53.0778V112.171Z" fill="white"/>
<path d="M68.4963 112.665V96.8707H77.135V97.3642H69.0026V104.521H76.6603V105.015H69.0026V112.171H77.3565V112.665H68.4963Z" fill="white"/>
<path d="M80.335 97.3642V96.8707H91.2837V97.3642H86.0625V112.665H85.5562V97.3642H80.335Z" fill="white"/>
<path d="M92.0095 112.665H91.4716L97.2624 96.8707H97.9586L103.749 112.665H103.211L97.6421 97.4876H97.5788L92.0095 112.665ZM93.8449 106.835H101.376V107.328H93.8449V106.835Z" fill="white"/>
<path d="M107.509 96.8707V112.665H107.003V96.8707H107.509Z" fill="white"/>
<path d="M112.572 112.665V96.8707H113.078V112.171H121.179V112.665H112.572Z" fill="white"/>
<path d="M125.609 96.8707V112.665H125.103V96.8707H125.609Z" fill="white"/>
<path d="M142.823 96.8707V112.665H142.317L131.242 97.7961H131.179V112.665H130.672V96.8707H131.179L142.254 111.74H142.317V96.8707H142.823Z" fill="white"/>
<path d="M159.367 101.806C159.272 101.267 159.077 100.724 158.782 100.179C158.492 99.629 158.104 99.1252 157.619 98.6676C157.139 98.21 156.569 97.8424 155.91 97.5647C155.251 97.2871 154.505 97.1483 153.671 97.1483C152.432 97.1483 151.346 97.4671 150.412 98.1046C149.484 98.737 148.761 99.6264 148.244 100.773C147.728 101.914 147.469 103.246 147.469 104.768C147.469 106.269 147.725 107.593 148.237 108.74C148.748 109.886 149.473 110.781 150.412 111.423C151.351 112.066 152.458 112.387 153.735 112.387C154.863 112.387 155.865 112.128 156.741 111.608C157.616 111.084 158.299 110.333 158.79 109.357C159.28 108.374 159.515 107.195 159.494 105.817L159.715 106.002H153.893V105.508H160V106.002C160 107.441 159.731 108.675 159.193 109.704C158.655 110.727 157.914 111.513 156.97 112.063C156.026 112.608 154.948 112.881 153.735 112.881C152.363 112.881 151.169 112.542 150.151 111.863C149.138 111.179 148.353 110.228 147.794 109.009C147.24 107.791 146.963 106.377 146.963 104.768C146.963 103.554 147.121 102.452 147.438 101.459C147.759 100.462 148.215 99.6059 148.806 98.8912C149.402 98.1714 150.111 97.6187 150.934 97.2331C151.757 96.8475 152.669 96.6547 153.671 96.6547C154.621 96.6547 155.459 96.8141 156.187 97.1329C156.915 97.4516 157.535 97.8707 158.046 98.3899C158.563 98.9041 158.972 99.4619 159.272 100.063C159.578 100.66 159.779 101.241 159.874 101.806H159.367Z" fill="white"/>
<path d="M19 67H20.0747L26.3097 81.8001H26.4204L32.6554 67H33.7301V83.2262H32.7818V69.3531H32.687L26.8313 83.2262H25.8988L20.0431 69.3531H19.9483V83.2262H19V67Z" fill="white"/>
<path d="M37.7821 83.2262H36.739L42.5788 67H43.7168L49.5567 83.2262H48.5136L43.1873 68.2756H43.1083L37.7821 83.2262ZM39.2598 77.1176H47.0358V78.0367H39.2598V77.1176Z" fill="white"/>
<path d="M57.064 83.2262H52.5754V67H57.4117C58.929 67 60.2276 67.3222 61.3076 67.9666C62.3876 68.611 63.2147 69.5353 63.7889 70.7396C64.3685 71.9386 64.6556 73.378 64.6503 75.0576C64.645 76.7743 64.3448 78.2427 63.7494 79.4628C63.1541 80.6776 62.2928 81.6099 61.1653 82.2596C60.0379 82.904 58.6708 83.2262 57.064 83.2262ZM53.5632 82.3071H57.0245C58.468 82.3071 59.685 82.0193 60.6754 81.4435C61.6658 80.8625 62.4139 80.0306 62.9197 78.9478C63.4307 77.865 63.6836 76.5683 63.6783 75.0576C63.6783 73.5681 63.4333 72.2925 62.9434 71.2309C62.4534 70.1639 61.7396 69.3452 60.8018 68.7747C59.8693 68.2043 58.7261 67.9191 57.3722 67.9191H53.5632V82.3071Z" fill="white"/>
<path d="M68.5047 83.2262V67H77.5135V67.9191H69.4925V74.6456H77.0314V75.5647H69.4925V82.3071H77.7031V83.2262H68.5047Z" fill="white"/>
<path d="M93.9762 67V83.2262H93.0121L82.6915 68.7985H82.5967V83.2262H81.6089V67H82.5809L92.9015 81.4435H92.9963V67H93.9762Z" fill="white"/>
<path d="M39.1428 89.9404H139.857" stroke="white" stroke-width="0.559524"/>
</svg>
