<svg width="250" height="100" viewBox="0 0 250 100" fill="none" xmlns="http://www.w3.org/2000/svg">
<path d="M94.984 69H90.9499V54.4545H95.2965C96.6602 54.4545 97.8273 54.7434 98.7979 55.321C99.7686 55.8987 100.512 56.7273 101.028 57.8068C101.549 58.8816 101.807 60.1719 101.802 61.6776C101.797 63.2164 101.528 64.5327 100.993 65.6264C100.458 66.7154 99.6834 67.5511 98.6701 68.1335C97.6568 68.7112 96.4281 69 94.984 69ZM91.8377 68.1761H94.9485C96.2459 68.1761 97.3396 67.9181 98.2298 67.402C99.1199 66.8812 99.7923 66.1354 100.247 65.1648C100.706 64.1941 100.933 63.0317 100.929 61.6776C100.929 60.3423 100.708 59.1989 100.268 58.2472C99.8278 57.2907 99.1862 56.5568 98.3434 56.0455C97.5053 55.5341 96.4779 55.2784 95.261 55.2784H91.8377V68.1761ZM105.266 69V54.4545H113.363V55.2784H106.154V61.3082H112.93V62.1321H106.154V68.1761H113.533V69H105.266ZM116.078 55.2784V54.4545H126.27V55.2784H121.618V69H120.73V55.2784H116.078ZM127.244 69H126.307L131.555 54.4545H132.578L137.827 69H136.889L132.102 55.598H132.031L127.244 69ZM128.572 63.5241H135.561V64.348H128.572V63.5241ZM141.428 54.4545V69H140.54V54.4545H141.428ZM145.637 69V54.4545H146.525V68.1761H153.627V69H145.637ZM157.775 54.4545V69H156.887V54.4545H157.775ZM173.1 54.4545V69H172.234L162.958 56.0668H162.873V69H161.985V54.4545H162.859L172.134 67.402H172.219V54.4545H173.1ZM187.489 59C187.38 58.5076 187.196 58.0317 186.935 57.5724C186.675 57.1084 186.341 56.6918 185.934 56.3224C185.531 55.9484 185.058 55.6525 184.513 55.4347C183.974 55.2169 183.368 55.108 182.695 55.108C181.668 55.108 180.756 55.3778 179.961 55.9176C179.17 56.4527 178.55 57.2173 178.1 58.2116C177.655 59.2012 177.433 60.3731 177.433 61.7273C177.433 63.0672 177.655 64.2344 178.1 65.2287C178.545 66.223 179.168 66.9924 179.968 67.5369C180.773 68.0767 181.708 68.3466 182.773 68.3466C183.725 68.3466 184.568 68.1264 185.302 67.6861C186.04 67.2457 186.616 66.616 187.028 65.7969C187.44 64.9777 187.641 63.9976 187.631 62.8565L187.944 63.0057H183.001V62.1818H188.498V63.0057C188.498 64.2888 188.252 65.3944 187.759 66.3224C187.272 67.2457 186.594 67.956 185.728 68.4531C184.866 68.9503 183.881 69.1989 182.773 69.1989C181.523 69.1989 180.432 68.8887 179.499 68.2685C178.567 67.6482 177.842 66.7794 177.326 65.6619C176.815 64.5398 176.559 63.2282 176.559 61.7273C176.559 60.6004 176.706 59.5777 176.999 58.6591C177.293 57.7405 177.712 56.9545 178.256 56.3011C178.801 55.643 179.45 55.1387 180.202 54.7884C180.955 54.4332 181.786 54.2557 182.695 54.2557C183.519 54.2557 184.26 54.393 184.918 54.6676C185.576 54.9375 186.145 55.3021 186.623 55.7614C187.106 56.2159 187.496 56.7249 187.795 57.2884C188.093 57.8471 188.294 58.4176 188.398 59H187.489Z" fill="white"/>
<path d="M62.1023 24.4545H63.0682L68.6719 37.7216H68.7713L74.375 24.4545H75.3409V39H74.4886V26.5639H74.4034L69.1406 39H68.3026L63.0398 26.5639H62.9545V39H62.1023V24.4545ZM78.9826 39H78.0451L83.2937 24.4545H84.3164L89.565 39H88.6275L83.8406 25.598H83.7695L78.9826 39ZM80.3107 33.5241H87.2994V34.348H80.3107V33.5241ZM96.3121 39H92.2781V24.4545H96.6246C97.9883 24.4545 99.1554 24.7434 100.126 25.321C101.097 25.8987 101.84 26.7273 102.356 27.8068C102.877 28.8816 103.135 30.1719 103.13 31.6776C103.126 33.2164 102.856 34.5327 102.321 35.6264C101.786 36.7154 101.011 37.5511 99.9982 38.1335C98.985 38.7112 97.7563 39 96.3121 39ZM93.1658 38.1761H96.2766C97.574 38.1761 98.6677 37.9181 99.5579 37.402C100.448 36.8812 101.12 36.1354 101.575 35.1648C102.034 34.1941 102.261 33.0317 102.257 31.6776C102.257 30.3423 102.037 29.1989 101.596 28.2472C101.156 27.2907 100.514 26.5568 99.6715 26.0455C98.8335 25.5341 97.806 25.2784 96.5891 25.2784H93.1658V38.1761ZM106.594 39V24.4545H114.691V25.2784H107.482V31.3082H114.258V32.1321H107.482V38.1761H114.862V39H106.594ZM129.487 24.4545V39H128.62L119.345 26.0668H119.26V39H118.372V24.4545H119.245L128.521 37.402H128.606V24.4545H129.487Z" fill="white"/>
<path d="M80 45H170" stroke="white" stroke-width="0.5"/>
</svg>
